<svg xmlns="http://www.w3.org/2000/svg" viewBox="0 0 512 512" width="512" height="512">
  <defs>
    <style>
      .navy { fill: #00305B; }
      .teal { fill: #0098A8; }
      .gold { fill: #FB9D1F; }
      .white { fill: #FFFFFF; }
    </style>
  </defs>

  <path class="teal" d="M110,240 Q180,240 245,320 V420 Q180,450 110,400 Z" />
  <path class="teal" d="M402,240 Q332,240 267,320 V420 Q332,450 402,400 Z" />

  <path class="navy" d="
    M256,480 
    L90,430 V300 L110,300 V400 L245,420 
    L245,230 
    Q220,260 210,290 
    L256,210 
    L302,290 
    Q292,260 267,230 
    L267,420 
    L402,400 V300 L422,300 V430 
    Z" />
    
  <path class="navy" d="M245,420 L256,480 L267,420 V300 L256,210 L245,300 Z" />

  <circle cx="256" cy="300" r="10" class="white" />
  <rect x="253" y="300" width="6" height="130" class="white" rx="3" />

  <path class="navy" d="M145,175 Q256,205 367,175 V240 Q256,270 145,240 Z" />
  <path class="navy" d="M256,20 L480,130 L256,240 L32,130 Z" />

  <rect x="85" y="140" width="8" height="60" class="gold" rx="2" />
  <path class="gold" d="M75,195 H103 V230 A4,4 0 0 1 99,234 H79 A4,4 0 0 1 75,230 Z" />
  <circle cx="89" cy="130" r="0" class="gold" /> <path class="gold" d="M89,125 L89,140" stroke="#FB9D1F" stroke-width="8" />

</svg>